<svg width="14" height="16" viewBox="0 0 14 16" fill="none" xmlns="http://www.w3.org/2000/svg">
<path d="M5.25 14.3375C3.775 14.15 2.53125 13.5 1.51875 12.3875C0.50625 11.275 0 9.9625 0 8.45C0 7.625 0.15325 6.85925 0.45975 6.15275C0.76575 5.44675 1.2 4.825 1.7625 4.2875L6 0.125L10.2375 4.2875C10.6875 4.7375 11.0595 5.24375 11.3535 5.80625C11.647 6.36875 11.8437 6.975 11.9437 7.625H10.425C10.3375 7.2 10.1905 6.79675 9.984 6.41525C9.778 6.03425 9.5125 5.6875 9.1875 5.375L6 2.225L2.8125 5.375C2.375 5.7875 2.047 6.253 1.8285 6.7715C1.6095 7.2905 1.5 7.85 1.5 8.45C1.5 9.5375 1.8595 10.4937 2.5785 11.3187C3.297 12.1437 4.1875 12.6437 5.25 12.8187V14.3375ZM6.975 10.7563L6.525 9.725C6.85 9.55 7.1905 9.40625 7.5465 9.29375C7.903 9.18125 8.2625 9.125 8.625 9.125C8.9125 9.125 9.19675 9.15925 9.47775 9.22775C9.75925 9.29675 10.0312 9.38125 10.2938 9.48125C10.5188 9.58125 10.747 9.66875 10.9785 9.74375C11.2095 9.81875 11.45 9.85625 11.7 9.85625C11.9875 9.85625 12.2688 9.80625 12.5438 9.70625C12.8188 9.60625 13.0875 9.4875 13.35 9.35L13.8 10.3813C13.475 10.5563 13.1345 10.7 12.7785 10.8125C12.422 10.925 12.0625 10.9813 11.7 10.9813C11.4125 10.9813 11.1282 10.9467 10.8472 10.8778C10.5657 10.8092 10.2937 10.725 10.0312 10.625C9.80625 10.525 9.578 10.4375 9.3465 10.3625C9.1155 10.2875 8.875 10.25 8.625 10.25C8.3375 10.25 8.05625 10.3 7.78125 10.4C7.50625 10.5 7.2375 10.6188 6.975 10.7563ZM6.975 13.0062L6.525 11.975C6.85 11.8 7.1905 11.6562 7.5465 11.5438C7.903 11.4313 8.2625 11.375 8.625 11.375C8.9125 11.375 9.19675 11.4092 9.47775 11.4777C9.75925 11.5467 10.0312 11.6313 10.2938 11.7313C10.5188 11.8313 10.747 11.9188 10.9785 11.9938C11.2095 12.0688 11.45 12.1063 11.7 12.1063C11.9875 12.1063 12.2688 12.0562 12.5438 11.9562C12.8188 11.8562 13.0875 11.7375 13.35 11.6L13.8 12.6312C13.475 12.8062 13.1345 12.95 12.7785 13.0625C12.422 13.175 12.0625 13.2313 11.7 13.2313C11.4125 13.2313 11.1282 13.1967 10.8472 13.1278C10.5657 13.0592 10.2937 12.975 10.0312 12.875C9.80625 12.775 9.578 12.6875 9.3465 12.6125C9.1155 12.5375 8.875 12.5 8.625 12.5C8.3375 12.5 8.05625 12.55 7.78125 12.65C7.50625 12.75 7.2375 12.8687 6.975 13.0062ZM6.975 15.2562L6.525 14.225C6.85 14.05 7.1905 13.9062 7.5465 13.7938C7.903 13.6813 8.2625 13.625 8.625 13.625C8.9125 13.625 9.19675 13.6592 9.47775 13.7277C9.75925 13.7967 10.0312 13.8813 10.2938 13.9813C10.5188 14.0813 10.747 14.1688 10.9785 14.2438C11.2095 14.3188 11.45 14.3563 11.7 14.3563C11.9875 14.3563 12.2688 14.3062 12.5438 14.2062C12.8188 14.1062 13.0875 13.9875 13.35 13.85L13.8 14.8812C13.475 15.0562 13.1345 15.2 12.7785 15.3125C12.422 15.425 12.0625 15.4813 11.7 15.4813C11.4125 15.4813 11.1282 15.4467 10.8472 15.3778C10.5657 15.3092 10.2937 15.225 10.0312 15.125C9.80625 15.025 9.578 14.9375 9.3465 14.8625C9.1155 14.7875 8.875 14.75 8.625 14.75C8.3375 14.75 8.05625 14.8 7.78125 14.9C7.50625 15 7.2375 15.1187 6.975 15.2562Z" fill="#333333"/>
</svg>
