<svg width="27" height="27" viewBox="0 0 27 27" fill="none" xmlns="http://www.w3.org/2000/svg">
<path d="M2.6731 5.75688L10.4135 2.40271L17.0481 5.75688L24.0178 2.73701C24.1019 2.70054 24.1937 2.68577 24.2848 2.69401C24.376 2.70225 24.4637 2.73326 24.5401 2.78424C24.6165 2.83522 24.6792 2.90459 24.7226 2.98611C24.7659 3.06763 24.7886 3.15876 24.7885 3.25131V21.4097L17.0481 24.7638L10.4135 21.4097L3.44382 24.4295C3.35968 24.466 3.26791 24.4808 3.17674 24.4725C3.08556 24.4643 2.99784 24.4333 2.92144 24.3823C2.84504 24.3313 2.78235 24.2619 2.73901 24.1804C2.69566 24.0989 2.67301 24.0078 2.6731 23.9152V5.75688ZM18.1539 21.8513L22.5769 19.9349V5.79377L18.1539 7.71012V21.8513ZM15.9423 21.7048V7.69782L11.5192 5.46171V19.4687L15.9423 21.7048ZM9.30771 19.4564V5.31524L4.88463 7.23159V21.3728L9.30771 19.4564Z" fill="#006EB5"/>
</svg>
