<svg width="26" height="26" viewBox="0 0 26 26" fill="none" xmlns="http://www.w3.org/2000/svg">
<path d="M3.25002 3.25H22.75C23.0373 3.25 23.3129 3.36414 23.5161 3.5673C23.7192 3.77047 23.8334 4.04602 23.8334 4.33333V21.6667C23.8334 21.954 23.7192 22.2295 23.5161 22.4327C23.3129 22.6359 23.0373 22.75 22.75 22.75H3.25002C2.9627 22.75 2.68715 22.6359 2.48399 22.4327C2.28082 22.2295 2.16669 21.954 2.16669 21.6667V4.33333C2.16669 4.04602 2.28082 3.77047 2.48399 3.5673C2.68715 3.36414 2.9627 3.25 3.25002 3.25ZM4.33335 5.41667V20.5833H21.6667V5.41667H4.33335ZM9.20835 15.1667H15.1667C15.3103 15.1667 15.4481 15.1096 15.5497 15.008C15.6513 14.9064 15.7084 14.7687 15.7084 14.625C15.7084 14.4813 15.6513 14.3436 15.5497 14.242C15.4481 14.1404 15.3103 14.0833 15.1667 14.0833H10.8334C10.1151 14.0833 9.42618 13.798 8.91827 13.2901C8.41036 12.7822 8.12502 12.0933 8.12502 11.375C8.12502 10.6567 8.41036 9.96783 8.91827 9.45992C9.42618 8.95201 10.1151 8.66667 10.8334 8.66667H11.9167V6.5H14.0834V8.66667H16.7917V10.8333H10.8334C10.6897 10.8333 10.5519 10.8904 10.4503 10.992C10.3488 11.0936 10.2917 11.2313 10.2917 11.375C10.2917 11.5187 10.3488 11.6564 10.4503 11.758C10.5519 11.8596 10.6897 11.9167 10.8334 11.9167H15.1667C15.885 11.9167 16.5739 12.202 17.0818 12.7099C17.5897 13.2178 17.875 13.9067 17.875 14.625C17.875 15.3433 17.5897 16.0322 17.0818 16.5401C16.5739 17.048 15.885 17.3333 15.1667 17.3333H14.0834V19.5H11.9167V17.3333H9.20835V15.1667Z" fill="#006EB5"/>
</svg>
