<svg width="26" height="26" viewBox="0 0 26 26" fill="none" xmlns="http://www.w3.org/2000/svg">
<path d="M4.09825 3.06142L13 1.08325L21.9018 3.06142C22.1423 3.1149 22.3575 3.2488 22.5117 3.44102C22.6659 3.63325 22.75 3.87231 22.75 4.11875V14.938C22.7499 16.008 22.4857 17.0615 21.9807 18.0049C21.4757 18.9483 20.7457 19.7525 19.8553 20.346L13 24.9166L6.14467 20.346C5.25446 19.7526 4.5245 18.9486 4.01954 18.0054C3.51459 17.0622 3.25026 16.0089 3.25 14.9391V4.11875C3.25004 3.87231 3.33411 3.63325 3.48832 3.44102C3.64254 3.2488 3.85768 3.1149 4.09825 3.06142ZM5.41667 4.98759V14.938C5.41668 15.6513 5.59279 16.3536 5.92937 16.9826C6.26594 17.6115 6.75258 18.1476 7.34608 18.5433L13 22.3133L18.6539 18.5433C19.2473 18.1477 19.7338 17.6118 20.0704 16.983C20.4069 16.3543 20.5831 15.6522 20.5833 14.9391V4.98759L13 3.30409L5.41667 4.98759ZM13 11.9166C12.2817 11.9166 11.5928 11.6312 11.0849 11.1233C10.577 10.6154 10.2917 9.92655 10.2917 9.20825C10.2917 8.48996 10.577 7.80108 11.0849 7.29317C11.5928 6.78526 12.2817 6.49992 13 6.49992C13.7183 6.49992 14.4072 6.78526 14.9151 7.29317C15.423 7.80108 15.7083 8.48996 15.7083 9.20825C15.7083 9.92655 15.423 10.6154 14.9151 11.1233C14.4072 11.6312 13.7183 11.9166 13 11.9166ZM8.15425 17.3333C8.28557 16.1399 8.85266 15.0369 9.74684 14.2357C10.641 13.4345 11.7994 12.9915 13 12.9915C14.2006 12.9915 15.359 13.4345 16.2532 14.2357C17.1473 15.0369 17.7144 16.1399 17.8457 17.3333H8.15425Z" fill="#006EB5"/>
</svg>
