<svg width="14" height="13" viewBox="0 0 14 13" fill="none" xmlns="http://www.w3.org/2000/svg">
<path d="M0.333264 0.666667C0.333264 0.298667 0.636597 0 0.994597 0H13.0053C13.3706 0 13.6666 0.296667 13.6666 0.666667V10C13.6666 10.368 13.3633 10.6667 13.0053 10.6667H0.994597C0.907349 10.6665 0.820995 10.6491 0.740488 10.6155C0.659982 10.5818 0.58691 10.5326 0.525465 10.4707C0.464019 10.4088 0.41541 10.3353 0.382427 10.2545C0.349445 10.1737 0.332737 10.0872 0.333264 10V0.666667ZM1.6666 1.33333V9.33333H12.3333V1.33333H1.6666ZM2.33326 11.3333H11.6666V12.6667H2.33326V11.3333Z" fill="#333333"/>
</svg>
