<svg width="12" height="16" viewBox="0 0 12 16" fill="none" xmlns="http://www.w3.org/2000/svg">
<path d="M1.5 0.5C1.10218 0.5 0.720644 0.658035 0.43934 0.93934C0.158035 1.22064 0 1.60218 0 2V13.25C0 14.0825 0.6675 14.75 1.5 14.75V15.5H3V14.75H9V15.5H10.5V14.75C11.3325 14.75 12 14.0825 12 13.25V2C12 1.60218 11.842 1.22064 11.5607 0.93934C11.2794 0.658035 10.8978 0.5 10.5 0.5H1.5ZM1.5 2H5.25V13.25H1.5V2ZM6.75 2H10.5V13.25H6.75V2ZM3 6.5V8.75H4.5V6.5H3ZM7.5 6.5V8.75H9V6.5H7.5Z" fill="#333333"/>
</svg>
