<svg width="14" height="17" viewBox="0 0 14 17" fill="none" xmlns="http://www.w3.org/2000/svg">
<path d="M7 2.32498L3.2875 6.03748C2.55333 6.77173 2.05337 7.70719 1.85084 8.72557C1.64831 9.74396 1.75231 10.7995 2.14969 11.7588C2.54706 12.7181 3.21997 13.538 4.08332 14.1149C4.94666 14.6917 5.96167 14.9996 7 14.9996C8.03833 14.9996 9.05334 14.6917 9.91669 14.1149C10.78 13.538 11.4529 12.7181 11.8503 11.7588C12.2477 10.7995 12.3517 9.74396 12.1492 8.72557C11.9466 7.70719 11.4467 6.77173 10.7125 6.03748L7 2.32498ZM7 0.203979L11.773 4.97698C12.717 5.92099 13.3599 7.12372 13.6203 8.43309C13.8808 9.74246 13.7471 11.0997 13.2362 12.3331C12.7253 13.5664 11.8601 14.6207 10.7501 15.3623C9.64006 16.104 8.33502 16.4999 7 16.4999C5.66498 16.4999 4.35994 16.104 3.24991 15.3623C2.13988 14.6207 1.27472 13.5664 0.763824 12.3331C0.25293 11.0997 0.119253 9.74246 0.379696 8.43309C0.64014 7.12372 1.28301 5.92099 2.227 4.97698L7 0.203979ZM7.75 8.24998H9.625L6.25 13.125V9.74998H4.375L7.75 4.87498V8.24998Z" fill="#333333"/>
</svg>
