<svg width="15" height="13" viewBox="0 0 15 13" fill="none" xmlns="http://www.w3.org/2000/svg">
<path d="M0.431152 3.37314C2.43058 1.75334 4.92668 0.871206 7.4999 0.875012C10.178 0.875012 12.6374 1.81064 14.5687 3.37314L13.7837 4.34564C12.0063 2.90568 9.78736 2.12154 7.4999 2.12501C5.11928 2.12501 2.93365 2.95626 1.21615 4.34564L0.431152 3.37314ZM2.39428 5.80439C3.8384 4.63439 5.6413 3.99722 7.4999 4.00001C9.43365 4.00001 11.2099 4.67564 12.6055 5.80376L11.8199 6.77626C10.5979 5.78647 9.07245 5.24752 7.4999 5.25001C5.86365 5.25001 4.36053 5.82189 3.1799 6.77626L2.39428 5.80376V5.80439ZM4.35803 8.23564C5.24668 7.51557 6.35614 7.12339 7.4999 7.12501C8.6899 7.12501 9.78303 7.54064 10.6418 8.23501L9.85615 9.20751C9.18965 8.66765 8.35762 8.37368 7.4999 8.37501C6.6074 8.37501 5.7874 8.68689 5.14365 9.20751L4.35803 8.23501V8.23564ZM6.32178 10.6669C6.65493 10.3967 7.07096 10.2495 7.4999 10.25C7.94615 10.25 8.35615 10.4063 8.67803 10.6663L7.4999 12.125L6.32178 10.6669Z" fill="#333333"/>
</svg>
